HIERARCHY
ROOT Hips
{
	OFFSET 0.000000 97.167313 0.000000
	CHANNELS 6 Xposition Yposition Zposition Xrotation Yrotation Zrotation
	JOINT Spine
	{
		OFFSET 0.000000 13.784798 0.064400
		CHANNELS 3 Xrotation Yrotation Zrotation
		JOINT Spine1
		{
			OFFSET 0.000000 12.037903 0.404700
			CHANNELS 3 Xrotation Yrotation Zrotation
			JOINT Spine2
			{
				OFFSET 0.000000 17.795601 0.420200
				CHANNELS 3 Xrotation Yrotation Zrotation
				JOINT Neck
				{
					OFFSET 0.000000 39.131302 11.954600
					CHANNELS 3 Xrotation Yrotation Zrotation
					JOINT Head
					{
						OFFSET 0.000000 14.456192 15.627699
						CHANNELS 3 Xrotation Yrotation Zrotation
						JOINT HeadTop_End
						{
							OFFSET 0.000000 15.703506 7.603401
							CHANNELS 3 Xrotation Yrotation Zrotation
							End Site
							{
								OFFSET 0.000000 17.447403 0.000000
							}
						}
					}
				}
				JOINT LeftShoulder
				{
					OFFSET 17.399500 24.608795 1.168800
					CHANNELS 3 Xrotation Yrotation Zrotation
					JOINT LeftArm
					{
						OFFSET 18.980635 5.765305 1.818600
						CHANNELS 3 Xrotation Yrotation Zrotation
						JOINT LeftForeArm
						{
							OFFSET 49.290169 0.000000 0.000000
							CHANNELS 3 Xrotation Yrotation Zrotation
							JOINT LeftHand
							{
								OFFSET 31.562012 0.000000 0.000000
								CHANNELS 3 Xrotation Yrotation Zrotation
								JOINT LeftHandThumb1
								{
									OFFSET 6.133995 -4.388519 7.076070
									CHANNELS 3 Xrotation Yrotation Zrotation
									JOINT LeftHandThumb2
									{
										OFFSET 6.037666 -3.485840 3.485847
										CHANNELS 3 Xrotation Yrotation Zrotation
										JOINT LeftHandThumb3
										{
											OFFSET 6.496506 -3.750763 3.750761
											CHANNELS 3 Xrotation Yrotation Zrotation
											JOINT LeftHandThumb4
											{
												OFFSET 5.616882 -3.242905 3.242910
												CHANNELS 3 Xrotation Yrotation Zrotation
												End Site
												{
													OFFSET -1.254608 7.132141 0.375429
												}
											}
										}
									}
								}
								JOINT LeftHandPinky1
								{
									OFFSET 18.920792 -0.453171 -11.426712
									CHANNELS 3 Xrotation Yrotation Zrotation
									JOINT LeftHandPinky2
									{
										OFFSET 4.919586 0.000000 0.000000
										CHANNELS 3 Xrotation Yrotation Zrotation
										JOINT LeftHandPinky3
										{
											OFFSET 5.233047 0.000000 0.000000
											CHANNELS 3 Xrotation Yrotation Zrotation
											JOINT LeftHandPinky4
											{
												OFFSET 5.571716 0.000000 0.000000
												CHANNELS 3 Xrotation Yrotation Zrotation
												End Site
												{
													OFFSET -3.459808 4.342407 -0.466164
												}
											}
										}
									}
								}
								JOINT LeftHandRing1
								{
									OFFSET 22.726120 -0.094986 -6.500475
									CHANNELS 3 Xrotation Yrotation Zrotation
									JOINT LeftHandRing2
									{
										OFFSET 6.408615 0.000000 0.000000
										CHANNELS 3 Xrotation Yrotation Zrotation
										JOINT LeftHandRing3
										{
											OFFSET 6.150223 0.000000 0.000000
											CHANNELS 3 Xrotation Yrotation Zrotation
											JOINT LeftHandRing4
											{
												OFFSET 6.145386 0.000000 0.000000
												CHANNELS 3 Xrotation Yrotation Zrotation
												End Site
												{
													OFFSET -3.671402 4.923981 -0.202372
												}
											}
										}
									}
								}
								JOINT LeftHandMiddle1
								{
									OFFSET 23.373947 0.000000 0.000001
									CHANNELS 3 Xrotation Yrotation Zrotation
									JOINT LeftHandMiddle2
									{
										OFFSET 6.996567 0.000000 0.000000
										CHANNELS 3 Xrotation Yrotation Zrotation
										JOINT LeftHandMiddle3
										{
											OFFSET 7.015945 0.000000 0.000000
											CHANNELS 3 Xrotation Yrotation Zrotation
											JOINT LeftHandMiddle4
											{
												OFFSET 7.721573 0.000000 0.000000
												CHANNELS 3 Xrotation Yrotation Zrotation
												End Site
												{
													OFFSET -4.651108 6.158463 0.251582
												}
											}
										}
									}
								}
								JOINT LeftHandIndex1
								{
									OFFSET 21.310577 -0.490082 6.209344
									CHANNELS 3 Xrotation Yrotation Zrotation
									JOINT LeftHandIndex2
									{
										OFFSET 7.536453 0.000000 0.000000
										CHANNELS 3 Xrotation Yrotation Zrotation
										JOINT LeftHandIndex3
										{
											OFFSET 7.512344 0.000000 0.000000
											CHANNELS 3 Xrotation Yrotation Zrotation
											JOINT LeftHandIndex4
											{
												OFFSET 10.212402 0.000000 0.000001
												CHANNELS 3 Xrotation Yrotation Zrotation
												End Site
												{
													OFFSET -5.180801 8.690506 1.388433
												}
											}
										}
									}
								}
							}
						}
					}
				}
				JOINT RightShoulder
				{
					OFFSET -17.399500 24.608795 1.168800
					CHANNELS 3 Xrotation Yrotation Zrotation
					JOINT RightArm
					{
						OFFSET -18.980635 5.765305 1.818600
						CHANNELS 3 Xrotation Yrotation Zrotation
						JOINT RightForeArm
						{
							OFFSET -49.290169 0.000000 0.000000
							CHANNELS 3 Xrotation Yrotation Zrotation
							JOINT RightHand
							{
								OFFSET -31.562012 0.000000 0.000000
								CHANNELS 3 Xrotation Yrotation Zrotation
								JOINT RightHandThumb1
								{
									OFFSET -6.133995 -4.388519 7.076070
									CHANNELS 3 Xrotation Yrotation Zrotation
									JOINT RightHandThumb2
									{
										OFFSET -6.037666 -3.485840 3.485847
										CHANNELS 3 Xrotation Yrotation Zrotation
										JOINT RightHandThumb3
										{
											OFFSET -6.496506 -3.750763 3.750761
											CHANNELS 3 Xrotation Yrotation Zrotation
											JOINT RightHandThumb4
											{
												OFFSET -5.616882 -3.242905 3.242910
												CHANNELS 3 Xrotation Yrotation Zrotation
												End Site
												{
													OFFSET 1.254608 7.132141 0.375429
												}
											}
										}
									}
								}
								JOINT RightHandIndex1
								{
									OFFSET -21.310577 -0.490082 6.209344
									CHANNELS 3 Xrotation Yrotation Zrotation
									JOINT RightHandIndex2
									{
										OFFSET -7.536453 0.000000 0.000000
										CHANNELS 3 Xrotation Yrotation Zrotation
										JOINT RightHandIndex3
										{
											OFFSET -7.512344 0.000000 0.000000
											CHANNELS 3 Xrotation Yrotation Zrotation
											JOINT RightHandIndex4
											{
												OFFSET -10.212402 0.000000 0.000001
												CHANNELS 3 Xrotation Yrotation Zrotation
												End Site
												{
													OFFSET 5.180801 8.690506 1.388433
												}
											}
										}
									}
								}
								JOINT RightHandMiddle1
								{
									OFFSET -23.373947 0.000000 0.000001
									CHANNELS 3 Xrotation Yrotation Zrotation
									JOINT RightHandMiddle2
									{
										OFFSET -6.996567 0.000000 0.000000
										CHANNELS 3 Xrotation Yrotation Zrotation
										JOINT RightHandMiddle3
										{
											OFFSET -7.015945 0.000000 0.000000
											CHANNELS 3 Xrotation Yrotation Zrotation
											JOINT RightHandMiddle4
											{
												OFFSET -7.721573 0.000000 0.000000
												CHANNELS 3 Xrotation Yrotation Zrotation
												End Site
												{
													OFFSET 4.651108 6.158463 0.251582
												}
											}
										}
									}
								}
								JOINT RightHandRing1
								{
									OFFSET -22.726120 -0.094986 -6.500475
									CHANNELS 3 Xrotation Yrotation Zrotation
									JOINT RightHandRing2
									{
										OFFSET -6.408615 0.000000 0.000000
										CHANNELS 3 Xrotation Yrotation Zrotation
										JOINT RightHandRing3
										{
											OFFSET -6.150223 0.000000 0.000000
											CHANNELS 3 Xrotation Yrotation Zrotation
											JOINT RightHandRing4
											{
												OFFSET -6.145386 0.000000 0.000000
												CHANNELS 3 Xrotation Yrotation Zrotation
												End Site
												{
													OFFSET 3.671402 4.923981 -0.202372
												}
											}
										}
									}
								}
								JOINT RightHandPinky1
								{
									OFFSET -18.920792 -0.453171 -11.426712
									CHANNELS 3 Xrotation Yrotation Zrotation
									JOINT RightHandPinky2
									{
										OFFSET -4.919586 0.000000 0.000000
										CHANNELS 3 Xrotation Yrotation Zrotation
										JOINT RightHandPinky3
										{
											OFFSET -5.233047 0.000000 0.000000
											CHANNELS 3 Xrotation Yrotation Zrotation
											JOINT RightHandPinky4
											{
												OFFSET -5.571716 0.000000 0.000000
												CHANNELS 3 Xrotation Yrotation Zrotation
												End Site
												{
													OFFSET 3.459808 4.342407 -0.466164
												}
											}
										}
									}
								}
							}
						}
					}
				}
			}
		}
	}
	JOINT LeftUpLeg
	{
		OFFSET 19.899099 -7.885101 -3.429500
		CHANNELS 3 Xrotation Yrotation Zrotation
		JOINT LeftLeg
		{
			OFFSET 1.745560 -36.997807 10.304700
			CHANNELS 3 Xrotation Yrotation Zrotation
			JOINT LeftFoot
			{
				OFFSET -1.745558 -29.803308 -13.615400
				CHANNELS 3 Xrotation Yrotation Zrotation
				JOINT LeftToeBase
				{
					OFFSET 1.181900 -18.539904 15.226099
					CHANNELS 3 Xrotation Yrotation Zrotation
					JOINT LeftToe_End
					{
						OFFSET -0.863701 1.402801 16.534700
						CHANNELS 3 Xrotation Yrotation Zrotation
						End Site
						{
							OFFSET 0.000000 16.616566 0.000000
						}
					}
				}
			}
		}
	}
	JOINT RightUpLeg
	{
		OFFSET -19.899099 -7.885101 -3.429500
		CHANNELS 3 Xrotation Yrotation Zrotation
		JOINT RightLeg
		{
			OFFSET -1.745560 -36.997807 10.304700
			CHANNELS 3 Xrotation Yrotation Zrotation
			JOINT RightFoot
			{
				OFFSET 1.745558 -29.803308 -13.615400
				CHANNELS 3 Xrotation Yrotation Zrotation
				JOINT RightToeBase
				{
					OFFSET -1.181900 -18.539904 15.226099
					CHANNELS 3 Xrotation Yrotation Zrotation
					JOINT RightToe_End
					{
						OFFSET 0.863701 1.402801 16.534700
						CHANNELS 3 Xrotation Yrotation Zrotation
						End Site
						{
							OFFSET 0.000000 16.616566 0.000000
						}
					}
				}
			}
		}
	}
}
MOTION
Frames: 5
Frame Time: 0.033333
0.777077 48.900452 24.232851 10.392641 1.101119 1.917915 6.974027 -1.579355 -1.369071 12.670599 -1.027818 -1.117632 12.663699 -1.069826 -1.121332 0.422183 -0.698709 -0.442823 -52.517844 2.022629 -7.888457 -0.000000 0.000000 -0.000000 2.053139 -12.448738 5.844343 -59.328068 -29.402035 -11.861979 -0.000057 -114.619167 -0.000086 -11.558105 -28.301837 33.735544 20.859241 4.365110 2.192763 0.280696 11.988894 -27.457570 -10.342197 22.893300 8.821340 -0.000001 0.000002 -0.000001 0.271005 7.579928 -14.432909 0.945458 3.192936 -32.981539 0.003041 -0.188800 1.842754 -0.000000 -0.000000 -0.000000 0.929995 7.386351 -10.768432 1.068082 3.374083 -35.122107 0.007248 0.291647 -2.847176 0.000000 0.000001 -0.000000 0.528481 5.943078 -8.229123 0.952411 3.203611 -33.106115 0.082049 0.978074 -9.589968 0.000000 -0.000000 0.000008 0.425062 1.444502 -13.828069 0.836208 3.018170 -30.965093 0.004674 -0.234178 2.285812 -0.000001 0.000003 0.000002 1.447163 10.990211 -3.414693 -72.594625 33.986051 27.565549 0.000030 117.344658 -0.000011 12.030019 3.890550 -19.226339 0.467304 9.476012 18.594003 2.136192 -23.165903 17.502621 -9.702757 -24.361570 -9.840189 0.000001 0.000001 -0.000003 2.448830 2.152085 1.738021 0.603738 -2.295160 29.472007 0.000817 0.087315 -1.071922 0.000002 -0.000003 -0.000002 -0.030342 -3.619618 -3.131289 1.500606 -3.425959 47.297530 0.001287 -0.109392 1.342992 -0.000002 -0.000001 -0.000009 0.239624 -6.342752 2.621596 0.613281 -2.311943 29.709451 0.060220 -0.747303 9.213813 0.000001 -0.000001 -0.000007 -11.640250 -11.617476 13.903525 0.284052 -1.603131 20.094014 0.029770 -0.526273 6.474232 0.000000 -0.000001 -0.000001 -95.803901 -13.386669 19.513893 83.399847 -2.813199 -4.945459 5.275646 -5.707992 -11.382855 -0.103120 -0.000003 0.000001 -0.000000 0.000000 0.000000 -98.158097 18.025072 -17.810476 85.476990 4.292145 3.353092 6.269229 -1.229885 12.905228 -0.191624 -0.000001 -0.000002 0.000000 -0.000001 0.000000 
0.813706 48.796043 24.231808 10.952352 1.293340 1.961273 7.437599 -1.477934 -1.373895 13.065356 -0.953252 -1.205830 13.058794 -0.994214 -1.208566 3.941122 -0.914715 -0.774758 -51.053680 1.404343 -8.161943 0.000000 0.000000 -0.000000 2.139854 -12.265381 7.334205 -55.523677 -27.537964 -13.627845 0.000039 -116.002143 0.000018 -9.731107 -25.925079 32.746167 20.860692 4.359646 2.191588 0.282206 11.986778 -27.457862 -10.341285 22.897311 8.824370 0.000003 0.000001 -0.000002 0.271399 7.580520 -14.430668 0.945413 3.192876 -32.980794 0.003037 -0.188733 1.842059 0.000001 0.000002 -0.000005 0.929876 7.386482 -10.766455 1.068069 3.374064 -35.121895 0.007261 0.291790 -2.848603 -0.000001 0.000001 0.000005 0.528734 5.944398 -8.230331 0.952392 3.203590 -33.105824 0.082042 0.978059 -9.589832 -0.000000 -0.000002 0.000006 0.424418 1.444298 -13.824926 0.836223 3.018214 -30.965489 0.004665 -0.234067 2.284688 -0.000001 0.000001 0.000002 1.496598 11.612301 -2.949615 -68.862876 33.252786 25.961062 0.000017 117.685867 0.000005 11.728817 4.277234 -16.146181 0.464096 9.475188 18.591790 2.137412 -23.162935 17.507127 -9.698842 -24.358804 -9.836679 -0.000001 0.000000 0.000002 2.450728 2.150236 1.734799 0.603650 -2.295005 29.469746 0.000818 0.087510 -1.074242 -0.000001 0.000000 -0.000001 -0.030380 -3.619822 -3.132136 1.500504 -3.425855 47.295809 0.001282 -0.109402 1.343037 0.000000 -0.000001 -0.000001 0.239640 -6.342718 2.621780 0.613280 -2.311938 29.709363 0.060243 -0.747423 9.215291 0.000000 0.000002 -0.000005 -11.640294 -11.618611 13.900626 0.283991 -1.602971 20.091876 0.029754 -0.526176 6.473026 -0.000001 0.000001 0.000002 -96.573923 -13.287256 19.242147 83.277122 -2.698988 -4.934168 5.555157 -5.740666 -11.332222 -0.103120 -0.000002 0.000001 -0.000000 0.000000 -0.000000 -98.781809 18.352985 -17.927819 85.505465 4.237512 3.377119 6.407648 -1.200107 13.042924 -0.191624 0.000000 -0.000002 0.000000 0.000000 0.000000 
0.828775 48.752350 24.274561 11.432669 1.443716 1.993169 7.870968 -1.374275 -1.392331 13.371058 -0.817706 -1.266662 13.365424 -0.857626 -1.265455 6.785154 -1.119311 -1.054211 -48.471144 0.576691 -8.370009 0.000000 -0.000000 -0.000000 2.224783 -12.014411 9.083516 -50.843566 -26.251183 -15.926963 0.000022 -117.168125 -0.000012 -8.100108 -23.503979 31.906030 20.861556 4.355027 2.187709 0.283826 11.984226 -27.457999 -10.339848 22.900204 8.827829 0.000002 -0.000000 -0.000001 0.271980 7.581402 -14.428312 0.945397 3.192852 -32.980477 0.003038 -0.188689 1.841569 -0.000003 0.000000 -0.000002 0.929777 7.386831 -10.763966 1.068071 3.374076 -35.122025 0.007268 0.291960 -2.850249 -0.000000 0.000000 0.000005 0.529030 5.945657 -8.232539 0.952385 3.203561 -33.105524 0.082037 0.978033 -9.589611 -0.000001 -0.000002 0.000001 0.423715 1.443590 -13.821309 0.836254 3.018248 -30.965831 0.004658 -0.233929 2.283272 0.000000 0.000001 0.000002 1.515753 12.072999 -2.423577 -64.542747 32.551285 24.239141 0.000035 117.862345 -0.000008 9.561178 4.956253 -13.460266 0.463110 9.474435 18.588990 2.135189 -23.160202 17.496233 -9.695718 -24.358135 -9.833935 -0.000000 -0.000002 0.000001 2.452765 2.148412 1.734840 0.603594 -2.294889 29.468400 0.000816 0.087674 -1.076368 0.000000 -0.000003 0.000003 -0.030191 -3.619769 -3.125551 1.500422 -3.425784 47.294538 0.001275 -0.109412 1.343117 0.000000 0.000000 -0.000006 0.239875 -6.343054 2.625060 0.613310 -2.311993 29.710032 0.060252 -0.747507 9.216329 -0.000001 -0.000001 -0.000002 -11.638540 -11.622277 13.907285 0.283948 -1.602862 20.090376 0.029753 -0.526123 6.472400 -0.000002 -0.000001 -0.000001 -97.035227 -13.232396 19.107722 83.194040 -2.712796 -4.971627 5.588562 -5.699876 -11.444693 -0.103120 -0.000002 0.000001 0.000000 -0.000000 0.000000 -99.163350 18.625190 -18.068357 85.559020 4.262750 3.415776 6.346090 -1.222909 13.204431 -0.191624 -0.000000 -0.000002 0.000000 -0.000000 -0.000000 
0.835924 48.820480 24.299654 11.719700 1.501992 1.908107 8.178261 -1.304169 -1.407908 13.396071 -0.699478 -1.266490 13.391341 -0.738300 -1.259999 8.011335 -1.217901 -1.139916 -45.985802 -0.096010 -8.367350 0.000000 0.000000 0.000000 2.230219 -11.657686 10.387540 -47.529746 -25.990741 -17.484345 -0.000038 -117.595326 -0.000056 -7.952526 -21.591225 31.121702 20.862444 4.353616 2.182824 0.281395 11.982660 -27.456252 -10.336589 22.901325 8.827352 -0.000002 0.000003 -0.000001 0.272704 7.582309 -14.428746 0.945515 3.193014 -32.982382 0.003035 -0.188836 1.843031 -0.000000 0.000003 -0.000004 0.929902 7.387207 -10.764746 1.068200 3.374242 -35.124026 0.007266 0.291957 -2.850276 -0.000002 0.000001 0.000005 0.529900 5.947747 -8.243938 0.952431 3.203650 -33.106531 0.082022 0.977923 -9.588495 0.000000 -0.000000 0.000001 0.422975 1.443349 -13.819516 0.836283 3.018308 -30.966654 0.004662 -0.233929 2.283399 -0.000000 0.000002 -0.000001 1.517323 12.140777 -2.249371 -61.701006 32.141596 22.980146 -0.000012 117.855652 0.000031 6.061274 4.705273 -11.636159 0.467364 9.474284 18.587489 2.127014 -23.159262 17.461408 -9.693858 -24.360305 -9.831922 -0.000001 0.000000 0.000001 2.454771 2.146598 1.739684 0.603620 -2.294938 29.468967 0.000827 0.087861 -1.078490 0.000002 -0.000001 0.000001 -0.029645 -3.619153 -3.107003 1.500545 -3.425886 47.296557 0.001280 -0.109430 1.343391 0.000001 0.000000 -0.000008 0.240417 -6.343312 2.632978 0.613419 -2.312180 29.712798 0.060256 -0.747526 9.216626 -0.000000 -0.000002 0.000002 -11.634525 -11.629743 13.929846 0.283971 -1.602921 20.091210 0.029753 -0.526120 6.472388 0.000001 0.000000 0.000001 -97.267214 -13.229986 19.032051 83.083582 -2.671027 -4.930321 5.614309 -5.714464 -11.402606 -0.103120 -0.000002 0.000001 -0.000000 -0.000001 0.000000 -99.187112 18.607614 -18.081000 85.475385 4.167415 3.432204 6.217864 -1.251869 13.310247 -0.191624 -0.000001 -0.000002 0.000000 0.000000 0.000000 
0.845068 48.879601 24.315769 11.847050 1.471137 1.766116 8.290869 -1.291806 -1.409869 13.002959 -0.664731 -1.201386 12.998649 -0.702102 -1.190672 7.640472 -1.209284 -1.054618 -44.818441 -0.406070 -8.217202 -0.000000 -0.000000 -0.000000 2.153478 -11.388764 10.575693 -46.678011 -26.549888 -17.161047 -0.000002 -117.227370 -0.000032 -9.367159 -20.289253 30.434691 20.863982 4.353465 2.183597 0.275473 11.981314 -27.452362 -10.332289 22.901597 8.823022 -0.000001 0.000001 -0.000002 0.273349 7.582693 -14.430769 0.945722 3.193360 -32.986351 0.003062 -0.189234 1.846882 0.000000 0.000001 -0.000000 0.930104 7.387215 -10.767548 1.068424 3.374574 -35.128035 0.007270 0.291943 -2.850050 0.000000 -0.000000 0.000002 0.531271 5.950909 -8.262363 0.952571 3.203862 -33.109000 0.081985 0.977700 -9.586310 0.000002 -0.000001 0.000004 0.421995 1.444404 -13.819804 0.836373 3.018439 -30.968112 0.004656 -0.233975 2.283698 -0.000004 0.000003 0.000002 1.530487 11.910235 -2.693320 -61.394631 31.924516 22.701247 -0.000026 117.950605 0.000057 3.000829 2.905496 -10.794971 0.467665 9.470882 18.586760 2.118744 -23.156730 17.435330 -9.690534 -24.357723 -9.827722 -0.000001 -0.000001 -0.000000 2.457100 2.145419 1.738682 0.603540 -2.294799 29.466980 0.000828 0.088079 -1.081210 -0.000002 -0.000003 0.000005 -0.029192 -3.618069 -3.092534 1.500623 -3.425984 47.297984 0.001282 -0.109430 1.343432 0.000003 -0.000000 -0.000004 0.240727 -6.342900 2.637982 0.613571 -2.312448 29.716504 0.060269 -0.747617 9.217714 0.000001 0.000002 -0.000003 -11.630994 -11.636484 13.948328 0.283978 -1.602910 20.091123 0.029739 -0.526018 6.471101 0.000003 -0.000001 0.000000 -97.425702 -13.310538 19.025352 83.061247 -2.612426 -4.865195 5.657664 -5.764960 -11.265472 -0.103120 -0.000002 0.000001 0.000000 0.000001 0.000000 -99.115279 18.447873 -17.999102 85.367324 4.038078 3.434817 6.139170 -1.262778 13.362972 -0.191624 -0.000000 -0.000002 0.000000 -0.000001 0.000000 
